<?xml version="1.0" encoding="UTF-8"?>
<svg id="Layer_1" data-name="Layer 1" xmlns="http://www.w3.org/2000/svg" viewBox="0 0 330.83 310.63">
  <defs>
    <style>
      .cls-1 {
        fill: #2563eb;
      }
    </style>
  </defs>
  <path class="cls-1" d="M13.48,142.15c-3.73,0-6.91-1.27-9.53-3.81-2.63-2.54-3.94-5.76-3.94-9.66s1.31-7.14,3.94-9.73c2.63-2.58,5.8-3.88,9.53-3.88s7.06,1.29,9.72,3.88c2.67,2.59,4,5.83,4,9.73s-1.34,6.91-4,9.53c-2.67,2.63-5.91,3.94-9.72,3.94Z"/>
  <path class="cls-1" d="M23.64,273.51c0,11.95,4.62,17.92,13.86,17.92,3.73,0,7.08-.47,10.04-1.4v18.81c-1.61,.42-3.75,.83-6.42,1.21-2.67,.38-5.49,.57-8.45,.57-4.15,0-8.05-.68-11.7-2.03-3.65-1.35-6.8-3.43-9.47-6.23-2.67-2.8-4.79-6.29-6.36-10.49-1.57-4.19-2.35-9.09-2.35-14.68v-121.47H23.64v117.79Z"/>
  <path class="cls-1" d="M178.23,309.87h-20.85v-74.24c0-27.63-10.09-41.44-30.26-41.44-10.42,0-19.05,3.92-25.87,11.76-6.82,7.84-10.23,17.73-10.23,29.68v74.24h-20.85V179.69h20.85v21.61h.51c9.83-16.44,24.07-24.66,42.71-24.66,14.24,0,25.13,4.6,32.67,13.79,7.54,9.2,11.31,22.48,11.31,39.85v79.58Z"/>
  <path class="cls-1" d="M58.39,60.86c-15.62,0-30.9,1.47-45.71,4.28-5.68,1.08-9.82,6.01-9.82,11.8h0c0,7.48,6.79,13.19,14.14,11.79,13.41-2.56,27.24-3.9,41.38-3.9,90.28,0,168.06,54.5,202.19,132.32,3.27,7.45,12.85,9.54,18.93,4.13h0c3.87-3.45,5.11-9,3.03-13.74C244.71,121.27,158.47,60.86,58.39,60.86Z"/>
  <path class="cls-1" d="M58.39,0C42.96,0,27.81,1.16,12.99,3.38,7.15,4.25,2.86,9.32,2.86,15.22v.02c0,7.33,6.51,12.92,13.76,11.83,13.63-2.04,27.58-3.1,41.77-3.1,108.51,0,202.89,61.71,249.86,151.88,3.59,6.89,12.75,8.5,18.55,3.33h0c4.09-3.64,5.22-9.59,2.69-14.44C278.5,66.93,176.11,0,58.39,0Z"/>
  <path class="cls-1" d="M58.39,114.6c-2.58,0-5.15,.05-7.71,.16-6.37,.27-11.37,5.59-11.37,11.97h0c0,6.8,5.63,12.26,12.41,11.98,2.21-.09,4.43-.14,6.67-.14,74.15,0,137.16,48.6,158.86,115.62,2.67,8.24,12.9,11.04,19.37,5.28h0c3.53-3.14,4.92-8.08,3.47-12.58-24.79-76.68-96.86-132.3-181.69-132.3Z"/>
</svg>